<mxfile host="Electron" modified="2023-10-31T19:32:13.562Z" agent="Mozilla/5.0 (Windows NT 10.0; Win64; x64) AppleWebKit/537.36 (KHTML, like Gecko) draw.io/22.0.3 Chrome/114.0.5735.289 Electron/25.8.4 Safari/537.36" etag="OFFIPO-x2JFEMFR2gDJY" version="22.0.3" type="device">
  <diagram name="Page-1" id="9IifeKv9vZ-zwIrIj1r8">
    <mxGraphModel dx="757" dy="441" grid="1" gridSize="10" guides="1" tooltips="1" connect="1" arrows="1" fold="1" page="1" pageScale="1" pageWidth="850" pageHeight="1100" math="0" shadow="0">
      <root>
        <mxCell id="0" />
        <mxCell id="1" parent="0" />
        <mxCell id="Jgz94g7ANsxRIRXQgY4n-15" style="edgeStyle=orthogonalEdgeStyle;rounded=0;orthogonalLoop=1;jettySize=auto;html=1;exitX=0;exitY=0.75;exitDx=0;exitDy=0;endArrow=oval;endFill=1;strokeColor=#EA6B66;" edge="1" parent="1" source="Jgz94g7ANsxRIRXQgY4n-2">
          <mxGeometry relative="1" as="geometry">
            <mxPoint x="170" y="710" as="targetPoint" />
            <Array as="points">
              <mxPoint x="265" y="710" />
            </Array>
          </mxGeometry>
        </mxCell>
        <mxCell id="Jgz94g7ANsxRIRXQgY4n-2" value="" style="rounded=0;whiteSpace=wrap;html=1;strokeWidth=5;fillColor=#e1d5e7;strokeColor=#9673a6;" vertex="1" parent="1">
          <mxGeometry x="265" y="420" width="320" height="350" as="geometry" />
        </mxCell>
        <mxCell id="Jgz94g7ANsxRIRXQgY4n-5" style="edgeStyle=orthogonalEdgeStyle;rounded=0;orthogonalLoop=1;jettySize=auto;html=1;exitX=0.25;exitY=1;exitDx=0;exitDy=0;entryX=0.109;entryY=0.001;entryDx=0;entryDy=0;entryPerimeter=0;strokeColor=#7EA6E0;" edge="1" parent="1" source="Jgz94g7ANsxRIRXQgY4n-4" target="Jgz94g7ANsxRIRXQgY4n-2">
          <mxGeometry relative="1" as="geometry">
            <mxPoint x="410" y="410" as="targetPoint" />
          </mxGeometry>
        </mxCell>
        <mxCell id="Jgz94g7ANsxRIRXQgY4n-4" value="SPI Controller" style="text;html=1;strokeColor=#6c8ebf;fillColor=#dae8fc;align=center;verticalAlign=middle;whiteSpace=wrap;rounded=0;" vertex="1" parent="1">
          <mxGeometry x="270" y="220" width="120" height="120" as="geometry" />
        </mxCell>
        <mxCell id="Jgz94g7ANsxRIRXQgY4n-6" style="edgeStyle=orthogonalEdgeStyle;rounded=0;orthogonalLoop=1;jettySize=auto;html=1;entryX=0.202;entryY=0.001;entryDx=0;entryDy=0;entryPerimeter=0;strokeColor=#7EA6E0;" edge="1" parent="1" source="Jgz94g7ANsxRIRXQgY4n-4" target="Jgz94g7ANsxRIRXQgY4n-2">
          <mxGeometry relative="1" as="geometry" />
        </mxCell>
        <mxCell id="Jgz94g7ANsxRIRXQgY4n-7" style="edgeStyle=orthogonalEdgeStyle;rounded=0;orthogonalLoop=1;jettySize=auto;html=1;exitX=0.75;exitY=1;exitDx=0;exitDy=0;entryX=0.297;entryY=0;entryDx=0;entryDy=0;entryPerimeter=0;strokeColor=#7EA6E0;" edge="1" parent="1" source="Jgz94g7ANsxRIRXQgY4n-4" target="Jgz94g7ANsxRIRXQgY4n-2">
          <mxGeometry relative="1" as="geometry" />
        </mxCell>
        <mxCell id="Jgz94g7ANsxRIRXQgY4n-8" value="&lt;font style=&quot;font-size: 9px;&quot;&gt;trim0[7:0]&lt;/font&gt;" style="text;html=1;strokeColor=none;fillColor=none;align=center;verticalAlign=middle;whiteSpace=wrap;rounded=0;rotation=270;" vertex="1" parent="1">
          <mxGeometry x="265" y="360" width="60" height="30" as="geometry" />
        </mxCell>
        <mxCell id="Jgz94g7ANsxRIRXQgY4n-10" value="&lt;font style=&quot;font-size: 9px;&quot;&gt;trim1[7:0]&lt;/font&gt;" style="text;html=1;strokeColor=none;fillColor=none;align=center;verticalAlign=middle;whiteSpace=wrap;rounded=0;rotation=270;" vertex="1" parent="1">
          <mxGeometry x="290" y="360" width="60" height="30" as="geometry" />
        </mxCell>
        <mxCell id="Jgz94g7ANsxRIRXQgY4n-11" value="&lt;font style=&quot;font-size: 9px;&quot;&gt;trim2[7:0]&lt;/font&gt;" style="text;html=1;strokeColor=none;fillColor=none;align=center;verticalAlign=middle;whiteSpace=wrap;rounded=0;rotation=270;" vertex="1" parent="1">
          <mxGeometry x="320" y="360" width="60" height="30" as="geometry" />
        </mxCell>
        <mxCell id="Jgz94g7ANsxRIRXQgY4n-12" value="&lt;font style=&quot;font-size: 9px;&quot;&gt;trim3[7:0]&lt;/font&gt;" style="text;html=1;strokeColor=none;fillColor=none;align=center;verticalAlign=middle;whiteSpace=wrap;rounded=0;rotation=270;" vertex="1" parent="1">
          <mxGeometry x="340" y="360" width="60" height="30" as="geometry" />
        </mxCell>
        <mxCell id="Jgz94g7ANsxRIRXQgY4n-13" value="" style="edgeStyle=elbowEdgeStyle;elbow=horizontal;endArrow=classic;html=1;curved=0;rounded=0;endSize=8;startSize=8;exitX=0.894;exitY=0.999;exitDx=0;exitDy=0;exitPerimeter=0;entryX=0.355;entryY=0.002;entryDx=0;entryDy=0;entryPerimeter=0;strokeColor=#7EA6E0;" edge="1" parent="1" source="Jgz94g7ANsxRIRXQgY4n-4" target="Jgz94g7ANsxRIRXQgY4n-2">
          <mxGeometry width="50" height="50" relative="1" as="geometry">
            <mxPoint x="370" y="360" as="sourcePoint" />
            <mxPoint x="420" y="310" as="targetPoint" />
          </mxGeometry>
        </mxCell>
        <mxCell id="Jgz94g7ANsxRIRXQgY4n-16" value="&lt;font style=&quot;font-size: 9px;&quot;&gt;treshold[7:0]&lt;/font&gt;" style="text;html=1;strokeColor=none;fillColor=none;align=center;verticalAlign=middle;whiteSpace=wrap;rounded=0;rotation=0;" vertex="1" parent="1">
          <mxGeometry x="180" y="690" width="60" height="30" as="geometry" />
        </mxCell>
      </root>
    </mxGraphModel>
  </diagram>
</mxfile>
